# xmcd CD database file generated by OrangeCD 6.4
#
# Track frame offsets:
#	150
#	14333
#	25182
#	35980
#	49136
#	61661
#	75784
#	93894
#	109343
#	121949
#	137811
#	150992
#	169647
#	186334
#	214334
#	227407
#	244582
#	262699
#	275592
#	295883
#
# Disc length: 4073 seconds
#
# Revision: 3
# Processed by: cddbd v1.5.2PL0 Copyright (c) Steve Scherf et al.
# Submitted via: OrangeCD 6.4
#
DISCID=060fe714
DTITLE=Various Artist - Sugar Hill Records: A Retrospective 1982-1996
DYEAR=2006
DGENRE=Bluegrass
TTITLE0=Freeborn Man (The (Almost) Original New South)
TTITLE1=If You Ain't Lovin', You Ain't Livin' (Red Knuckles and The Trailblazers)
TTITLE2=Father I Stretch My Hand (Nashville Bluegrass Band)
TTITLE3=High Hill (Uncle Walt's Band)
TTITLE4=The Bigger The Fool (Lonesome Standard Time)
TTITLE5=I'm Not Over You (Carl Jackson)
TTITLE6=Señor (Tim O'Brien)
TTITLE7=Satan's Jeweled Crown (The Seldom Scene/Emmylou Harris)
TTITLE8=Whiskey 'Fore Breakfast - Sailor's Bonnet  (Mike Cross)
TTITLE9=Mariano (Robert Earl Keen)
TTITLE10=Rock Bottom Blues (Nashville Bluegrass Band)
TTITLE11=At My Window (Townes Van Zandt)
TTITLE12=Nobody Knows But Me (Doc Watson)
TTITLE13=One Rose - Hot Buttered Rum (Red Clay Ramblers)
TTITLE14=Train Of Life (Blue Rose)
TTITLE15=Mother I'm Lonely (Kukuruza)
TTITLE16=Unwed Fathers (Tim and Mollie O'Brien)
TTITLE17=Pig In A Pen (Old and In The Way)
TTITLE18=Trail Of Tears (Peter Rowan and Nashville Bluegrass Band)
TTITLE19=Lord I've Been A Hard Working Pilgrim (Doyle Lawson and Quicksilver)
EXTD=
EXTT0=
EXTT1=
EXTT2=
EXTT3=
EXTT4=
EXTT5=
EXTT6=
EXTT7=
EXTT8=
EXTT9=
EXTT10=
EXTT11=
EXTT12=
EXTT13=
EXTT14=
EXTT15=
EXTT16=
EXTT17=
EXTT18=
EXTT19=
PLAYORDER=
